<svg height="678" version="1.1" width="1148" xmlns="http://www.w3.org/2000/svg" style="overflow: hidden; position: relative;"><desc style="-webkit-tap-highlight-color: rgba(0, 0, 0, 0);">Created with Raphaël 2.0.1</desc><defs style="-webkit-tap-highlight-color: rgba(0, 0, 0, 0);"></defs><rect x="0" y="0" width="1148" height="678" r="0" rx="0" ry="0" fill="#242424" stroke="none" style="-webkit-tap-highlight-color: rgba(0, 0, 0, 0);"></rect><rect x="590" y="237" width="289" height="141" r="5" rx="5" ry="5" fill="#ffffff" stroke="none" transform="matrix(1,0,0,1,-144.5,-70.5)" stroke-width="0" opacity="0.2" style="-webkit-tap-highlight-color: rgba(0, 0, 0, 0); opacity: 0.2;"></rect><rect x="619" y="554" width="62" height="286" r="5" rx="5" ry="5" fill="#ffffff" stroke="none" transform="matrix(1,0,0,1,-31,-143)" stroke-width="0" opacity="0.2" style="-webkit-tap-highlight-color: rgba(0, 0, 0, 0); opacity: 0.2;"></rect><rect x="349" y="497" width="80" height="220" r="5" rx="5" ry="5" fill="#ffffff" stroke="none" transform="matrix(1,0,0,1,-40,-110)" stroke-width="0" opacity="0.2" style="-webkit-tap-highlight-color: rgba(0, 0, 0, 0); opacity: 0.2;"></rect><rect x="946" y="452" width="78" height="206" r="5" rx="5" ry="5" fill="#ffffff" stroke="none" transform="matrix(1,0,0,1,-39,-103)" stroke-width="0" opacity="0.2" style="-webkit-tap-highlight-color: rgba(0, 0, 0, 0); opacity: 0.2;"></rect><rect x="538" y="299" width="31" height="21" r="5" rx="5" ry="5" fill="#ffffff" stroke="none" transform="matrix(1,0,0,1,-15.5,-10.5)" stroke-width="0" opacity="0.2" style="-webkit-tap-highlight-color: rgba(0, 0, 0, 0); opacity: 0.2;"></rect><rect x="374" y="158" width="222" height="284" r="5" rx="5" ry="5" fill="#ffffff" stroke="none" transform="matrix(1,0,0,1,-111,-142)" stroke-width="0" opacity="0.2" style="-webkit-tap-highlight-color: rgba(0, 0, 0, 0); opacity: 0.2;"></rect><rect x="738" y="150" width="138" height="296" r="5" rx="5" ry="5" fill="#ffffff" stroke="none" transform="matrix(1,0,0,1,-69,-148)" stroke-width="0" opacity="0.2" style="-webkit-tap-highlight-color: rgba(0, 0, 0, 0); opacity: 0.2;"></rect><rect x="126" y="275" width="157" height="220" r="5" rx="5" ry="5" fill="#ffffff" stroke="none" transform="matrix(1,0,0,1,-78.5,-110)" stroke-width="0" opacity="0.2" style="-webkit-tap-highlight-color: rgba(0, 0, 0, 0); opacity: 0.2;"></rect><rect x="558" y="196" width="38" height="210" r="5" rx="5" ry="5" fill="#ffffff" stroke="none" transform="matrix(1,0,0,1,-19,-105)" stroke-width="0" opacity="0.2" style="-webkit-tap-highlight-color: rgba(0, 0, 0, 0); opacity: 0.2;"></rect><rect x="249" y="159" width="22" height="156" r="5" rx="5" ry="5" fill="#ffffff" stroke="none" transform="matrix(1,0,0,1,-11,-78)" stroke-width="0" opacity="0.2" style="-webkit-tap-highlight-color: rgba(0, 0, 0, 0); opacity: 0.2;"></rect><rect x="699" y="166" width="30" height="165" r="5" rx="5" ry="5" fill="#ffffff" stroke="none" transform="matrix(1,0,0,1,-15,-82.5)" stroke-width="0" opacity="0.2" style="-webkit-tap-highlight-color: rgba(0, 0, 0, 0); opacity: 0.2;"></rect><rect x="310" y="247" width="136" height="290" r="5" rx="5" ry="5" fill="#ffffff" stroke="none" transform="matrix(1,0,0,1,-68,-145)" stroke-width="0" opacity="0.2" style="-webkit-tap-highlight-color: rgba(0, 0, 0, 0); opacity: 0.2;"></rect><rect x="455" y="176" width="144" height="298" r="5" rx="5" ry="5" fill="#ffffff" stroke="none" transform="matrix(1,0,0,1,-72,-149)" stroke-width="0" opacity="0.2" style="-webkit-tap-highlight-color: rgba(0, 0, 0, 0); opacity: 0.2;"></rect><rect x="934" y="359" width="136" height="49" r="5" rx="5" ry="5" fill="#ffffff" stroke="none" transform="matrix(1,0,0,1,-68,-24.5)" stroke-width="0" opacity="0.2" style="-webkit-tap-highlight-color: rgba(0, 0, 0, 0); opacity: 0.2;"></rect><rect x="957" y="297" width="36" height="266" r="5" rx="5" ry="5" fill="#ffffff" stroke="none" transform="matrix(1,0,0,1,-18,-133)" stroke-width="0" opacity="0.2" style="-webkit-tap-highlight-color: rgba(0, 0, 0, 0); opacity: 0.2;"></rect><rect x="199" y="159" width="235" height="298" r="5" rx="5" ry="5" fill="#ffffff" stroke="none" transform="matrix(1,0,0,1,-117.5,-149)" stroke-width="0" opacity="0.2" style="-webkit-tap-highlight-color: rgba(0, 0, 0, 0); opacity: 0.2;"></rect><rect x="256" y="241" width="72" height="149" r="5" rx="5" ry="5" fill="#ffffff" stroke="none" transform="matrix(1,0,0,1,-36,-74.5)" stroke-width="0" opacity="0.2" style="-webkit-tap-highlight-color: rgba(0, 0, 0, 0); opacity: 0.2;"></rect><rect x="606" y="329" width="167" height="44" r="5" rx="5" ry="5" fill="#ffffff" stroke="none" transform="matrix(1,0,0,1,-83.5,-22)" stroke-width="0" opacity="0.2" style="-webkit-tap-highlight-color: rgba(0, 0, 0, 0); opacity: 0.2;"></rect><rect x="279" y="171" width="175" height="265" r="5" rx="5" ry="5" fill="#ffffff" stroke="none" transform="matrix(1,0,0,1,-87.5,-132.5)" stroke-width="0" opacity="0.2" style="-webkit-tap-highlight-color: rgba(0, 0, 0, 0); opacity: 0.2;"></rect><rect x="1005" y="527" width="288" height="36" r="5" rx="5" ry="5" fill="#ffffff" stroke="none" transform="matrix(1,0,0,1,-144,-18)" stroke-width="0" opacity="0.2" style="-webkit-tap-highlight-color: rgba(0, 0, 0, 0); opacity: 0.2;"></rect><rect x="997" y="412" width="214" height="93" r="5" rx="5" ry="5" fill="#ffffff" stroke="none" transform="matrix(1,0,0,1,-107,-46.5)" stroke-width="0" opacity="0.2" style="-webkit-tap-highlight-color: rgba(0, 0, 0, 0); opacity: 0.2;"></rect><rect x="673" y="138" width="293" height="106" r="5" rx="5" ry="5" fill="#ffffff" stroke="none" transform="matrix(1,0,0,1,-146.5,-53)" stroke-width="0" opacity="0.2" style="-webkit-tap-highlight-color: rgba(0, 0, 0, 0); opacity: 0.2;"></rect><rect x="142" y="180" width="169" height="86" r="5" rx="5" ry="5" fill="#ffffff" stroke="none" transform="matrix(1,0,0,1,-84.5,-43)" stroke-width="0" opacity="0.2" style="-webkit-tap-highlight-color: rgba(0, 0, 0, 0); opacity: 0.2;"></rect><rect x="669" y="145" width="315" height="143" r="5" rx="5" ry="5" fill="#ffffff" stroke="none" transform="matrix(1,0,0,1,-157.5,-71.5)" stroke-width="0" opacity="0.2" style="-webkit-tap-highlight-color: rgba(0, 0, 0, 0); opacity: 0.2;"></rect><rect x="453" y="536" width="146" height="263" r="5" rx="5" ry="5" fill="#ffffff" stroke="none" transform="matrix(1,0,0,1,-73,-131.5)" stroke-width="0" opacity="0.2" style="-webkit-tap-highlight-color: rgba(0, 0, 0, 0); opacity: 0.2;"></rect><rect x="351" y="233" width="310" height="244" r="5" rx="5" ry="5" fill="#ffffff" stroke="none" transform="matrix(1,0,0,1,-155,-122)" stroke-width="0" opacity="0.2" style="-webkit-tap-highlight-color: rgba(0, 0, 0, 0); opacity: 0.2;"></rect><rect x="619" y="229" width="263" height="114" r="5" rx="5" ry="5" fill="#ffffff" stroke="none" transform="matrix(1,0,0,1,-131.5,-57)" stroke-width="0" opacity="0.2" style="-webkit-tap-highlight-color: rgba(0, 0, 0, 0); opacity: 0.2;"></rect><rect x="453" y="536" width="62" height="180" r="5" rx="5" ry="5" fill="#ffffff" stroke="none" transform="matrix(1,0,0,1,-31,-90)" stroke-width="0" opacity="0.2" style="-webkit-tap-highlight-color: rgba(0, 0, 0, 0); opacity: 0.2;"></rect><rect x="465" y="459" width="150" height="51" r="5" rx="5" ry="5" fill="#ffffff" stroke="none" transform="matrix(1,0,0,1,-75,-25.5)" stroke-width="0" opacity="0.2" style="-webkit-tap-highlight-color: rgba(0, 0, 0, 0); opacity: 0.2;"></rect><rect x="951" y="530" width="306" height="24" r="5" rx="5" ry="5" fill="#ffffff" stroke="none" transform="matrix(1,0,0,1,-153,-12)" stroke-width="0" opacity="0.2" style="-webkit-tap-highlight-color: rgba(0, 0, 0, 0); opacity: 0.2;"></rect><rect x="951" y="510" width="288" height="225" r="5" rx="5" ry="5" fill="#ffffff" stroke="none" transform="matrix(1,0,0,1,-144,-112.5)" stroke-width="0" opacity="0.2" style="-webkit-tap-highlight-color: rgba(0, 0, 0, 0); opacity: 0.2;"></rect><rect x="776" y="257" width="268" height="128" r="5" rx="5" ry="5" fill="#ffffff" stroke="none" transform="matrix(1,0,0,1,-134,-64)" stroke-width="0" opacity="0.2" style="-webkit-tap-highlight-color: rgba(0, 0, 0, 0); opacity: 0.2;"></rect></svg>